<?xml version="1.0" encoding="UTF-8" standalone="no"?>
<svg width="32" height="32" viewBox="0 0 32 32" fill="none" xmlns="http://www.w3.org/2000/svg">
  <rect width="32" height="32" rx="4" fill="#0077B5"/>
  <path d="M10 8H22C23.1046 8 24 8.89543 24 10V22C24 23.1046 23.1046 24 22 24H10C8.89543 24 8 23.1046 8 22V10C8 8.89543 8.89543 8 10 8Z" fill="#0077B5" stroke="white" stroke-width="2"/>
  <path d="M12 18V14H14V18H12Z" fill="white"/>
  <path d="M16 18V14H18V18H16Z" fill="white"/>
  <path d="M20 18V14H22V18H20Z" fill="white"/>
  <path d="M13 12C13 12.5523 12.5523 13 12 13C11.4477 13 11 12.5523 11 12C11 11.4477 11.4477 11 12 11C12.5523 11 13 11.4477 13 12Z" fill="white"/>
  <path d="M17 12C17 12.5523 16.5523 13 16 13C15.4477 13 15 12.5523 15 12C15 11.4477 15.4477 11 16 11C16.5523 11 17 11.4477 17 12Z" fill="white"/>
  <path d="M21 12C21 12.5523 20.5523 13 20 13C19.4477 13 19 12.5523 19 12C19 11.4477 19.4477 11 20 11C20.5523 11 21 11.4477 21 12Z" fill="white"/>
  <path d="M10 21H22" stroke="white" stroke-width="2" stroke-linecap="round"/>
</svg>